<svg width="77" height="60" viewBox="0 0 77 60" fill="none" xmlns="http://www.w3.org/2000/svg">
<path d="M8.16967 32.9755C10.3963 17.6353 -1.77259 -1.19855 16.5262 1.4575C34.825 4.11354 72.7687 6.19371 61.0713 33.9709C58.8446 49.3111 65.4545 59.9693 47.1557 57.3132C28.8569 54.6572 5.94305 48.3158 8.16967 32.9755Z" fill="#AFB1EF"/>
<path d="M38.72 47C44.84 47 47.96 44.16 47.96 39.64C47.96 36.04 45.84 33.32 41.52 33V32.6C45.08 32.16 46.88 30.08 46.88 26.88C46.88 22.24 43.8 20.2 38.08 20.2H24.88V47H38.72ZM30.88 25.6H37.68C39.88 25.6 40.88 26.04 40.88 28.2C40.88 30.32 39.92 30.8 37.68 30.8H30.88V25.6ZM30.88 35.68H38.52C40.76 35.68 41.92 36.08 41.92 38.68C41.92 41.2 40.72 41.6 38.52 41.6H30.88V35.68ZM61.2528 47C69.8528 47 75.1328 42 75.1328 33.6C75.1328 25.2 69.8528 20.2 61.2528 20.2H51.0128V47H61.2528ZM61.1728 25.6C66.6128 25.6 68.6928 27.24 68.6928 33.6C68.6928 39.96 66.6128 41.6 61.1728 41.6H57.0128V25.6H61.1728Z" fill="black"/>
</svg>
